<?xml version="1.0" encoding="utf-8"?>
<!-- Generator: Adobe Illustrator 16.0.0, SVG Export Plug-In . SVG Version: 6.00 Build 0)  -->
<!DOCTYPE svg PUBLIC "-//W3C//DTD SVG 1.1//EN" "http://www.w3.org/Graphics/SVG/1.1/DTD/svg11.dtd">
<svg version="1.1" id="Layer_1" xmlns="http://www.w3.org/2000/svg" xmlns:xlink="http://www.w3.org/1999/xlink" x="0px" y="0px"
	 width="200px" height="65.758px" viewBox="0 0 200 65.758" enable-background="new 0 0 200 65.758" xml:space="preserve">
<path fill="#092738" d="M64.459,19.166c0,0.625,0,1.25,0,1.875c0,19.507-14.828,41.826-41.829,41.826
	c-8.428,0-16.076-2.342-22.63-6.555c1.092,0.156,2.34,0.156,3.589,0.156c6.868,0,13.267-2.342,18.261-6.244
	c-6.398-0.156-11.861-4.369-13.734-10.301c0.78,0.312,1.716,0.312,2.654,0.312c1.404,0,2.652-0.158,3.901-0.468
	C7.96,38.364,2.965,32.433,2.965,25.253v-0.158c1.872,1.094,4.214,1.719,6.556,1.875c-3.902-2.654-6.556-7.18-6.556-12.332
	c0-2.652,0.78-5.148,2.029-7.334c7.335,8.896,18.104,14.826,30.435,15.295c-0.312-0.937-0.468-2.184-0.468-3.277
	c0-8.115,6.555-14.672,14.826-14.672c4.214,0,7.961,1.718,10.614,4.526c3.433-0.622,6.555-1.872,9.363-3.433
	c-1.092,3.434-3.434,6.244-6.399,8.116c2.966-0.468,5.775-1.249,8.429-2.34C69.765,14.484,67.268,16.982,64.459,19.166z"/>
<path fill="#092738" d="M189.748,11.264c-1.299,0-2.6,1.587-2.6,3.754v7.365H200v10.686h-12.852v31.913h-12.273V33.068H163.9V22.383
	h10.975v-6.211C174.875,7.221,181.229,0,189.748,0H200v11.264H189.748z"/>
</svg>
